<svg xmlns="http://www.w3.org/2000/svg" xmlns:xlink="http://www.w3.org/1999/xlink" width="375" height="401" viewBox="0 0 375 401">
  <defs>
    <linearGradient id="linear-gradient" x1="0.5" x2="0.5" y2="1" gradientUnits="objectBoundingBox">
      <stop offset="0" stop-color="#9027fc"/>
      <stop offset="1" stop-color="#7514ba"/>
    </linearGradient>
  </defs>
  <g id="background_img" fill="url(#linear-gradient)">
    <path d="M 374.5 400.3818359375 L 167.1152496337891 356.0566101074219 C 155.1815185546875 352.9668884277344 143.7769775390625 349.6248779296875 133.2199554443359 346.1237487792969 C 122.0557022094727 342.4212951660156 111.4781494140625 338.42138671875 101.7811508178711 334.2352600097656 C 91.59394836425781 329.8374938964844 82.06114959716797 325.0972900390625 73.44754791259766 320.1463623046875 C 64.44349670410156 314.9710083007812 56.16989898681641 309.4079895019531 48.85654830932617 303.6119079589844 C 41.2422981262207 297.5773620605469 34.44089889526367 291.1094970703125 28.64134979248047 284.3880920410156 C 22.62235069274902 277.412353515625 17.50395011901855 269.9567565917969 13.42825031280518 262.2283020019531 C 9.20835018157959 254.2263946533203 5.981900215148926 245.6962432861328 3.838550090789795 236.8748474121094 C 1.623250007629395 227.7574462890625 0.5 218.0619049072266 0.5 208.0576477050781 L 0.5 0.5 L 374.5 0.5 L 374.5 400.3818359375 Z" stroke="none"/>
    <path d="M 1 1 L 1 208.0576477050781 C 1 218.0222015380859 2.118499755859375 227.6779937744141 4.32440185546875 236.7568054199219 C 6.458038330078125 245.5381927490234 9.66986083984375 254.0296020507812 13.87051391601562 261.9950561523438 C 17.9285888671875 269.6900939941406 23.02560424804688 277.1143188476562 29.0198974609375 284.0614624023438 C 34.7989501953125 290.7590942382812 41.57745361328125 297.2049560546875 49.1671142578125 303.2200317382812 C 56.46109008789062 309.0007934570312 64.71405029296875 314.5498046875 73.69674682617188 319.7128601074219 C 82.29391479492188 324.6543579101562 91.80953979492188 329.3859558105469 101.9793090820312 333.7761840820312 C 111.6630554199219 337.9566650390625 122.2268524169922 341.9512939453125 133.3773040771484 345.6492004394531 C 143.9212493896484 349.1459655761719 155.3106842041016 352.4836730957031 167.2304992675781 355.5699462890625 L 374 399.7637023925781 L 374 1 L 1 1 M 0 0 L 375 0 L 375 401 L 167 356.5432434082031 C 73.78924560546875 332.4124145507812 0 290.06396484375 0 208.0576477050781 L 0 0 Z" stroke="none" fill="#707070"/>
  </g>
</svg>
