<svg xmlns="http://www.w3.org/2000/svg" xmlns:xlink="http://www.w3.org/1999/xlink" width="86.921" height="181" viewBox="0 0 86.921 181">
  <defs>
    <linearGradient id="linear-gradient" x1="0.5" x2="0.5" y2="1" gradientUnits="objectBoundingBox">
      <stop offset="0" stop-color="#e994bd"/>
      <stop offset="1" stop-color="#fff"/>
    </linearGradient>
    <linearGradient id="linear-gradient-3" x2="0.664" y2="1.308" xlink:href="#linear-gradient"/>
  </defs>
  <g id="man_icon" transform="translate(-2757 406)">
    <path id="路径_75" data-name="路径 75" d="M166.167,281.167l59.333-8.334-9.274-65.194a23.713,23.713,0,0,0-26.783-20.182L177.765,189.1a24.422,24.422,0,0,0-20.786,27.583Z" transform="translate(2613.495 -506.167)" fill="#5ac7db"/>
    <path id="路径_76" data-name="路径 76" d="M185.066,196.38h0a9.057,9.057,0,0,1-10.23-7.709l-1.951-13.882a7.085,7.085,0,0,1,6.031-8l1.952-.275a7.087,7.087,0,0,1,8,6.032l2.226,15.834A7.087,7.087,0,0,1,185.066,196.38Z" transform="translate(2613.495 -506.167)" fill="url(#linear-gradient)"/>
    <path id="路径_77" data-name="路径 77" d="M194.228,166.58l.795-.3c7.635-3.185-2.8-41.666-2.8-41.666l-12.278,4.553Z" transform="translate(2613.495 -506.167)" fill="#030e19"/>
    <path id="路径_78" data-name="路径 78" d="M190.12,139.985l2.031-.805a5.483,5.483,0,0,1,7.312,2.966l.9,2.446a5.847,5.847,0,0,1-3.562,7.279l-2.031.8Z" transform="translate(2613.495 -506.167)" fill="url(#linear-gradient)"/>
    <path id="路径_79" data-name="路径 79" d="M171.14,173.338c-7.94,3.123-26.9-34.9-26.9-34.9a11.14,11.14,0,0,1,6.435-14.38h0L157.7,121.3Z" transform="translate(2613.495 -506.167)" fill="#011833"/>
    <path id="路径_80" data-name="路径 80" d="M164.959,120.149h0a20.808,20.808,0,0,0-11.947,26.887l8.369,22.055c4.935,12.171,16.117,16.11,26.848,12.013l12.077-4.61a7.871,7.871,0,0,0,4.546-10.161L187.61,121.166C183.513,110.435,175.69,116.052,164.959,120.149Z" transform="translate(2613.495 -506.167)" fill="url(#linear-gradient-3)"/>
    <path id="路径_81" data-name="路径 81" d="M174.919,141.481l-7.259,2.771a.97.97,0,1,1-.692-1.813l7.259-2.771a.97.97,0,1,1,.692,1.813Z" transform="translate(2613.495 -506.167)" fill="#011833"/>
    <path id="路径_82" data-name="路径 82" d="M190.32,139.229,183.06,142a.97.97,0,0,1-.692-1.813l7.26-2.771a.97.97,0,0,1,.692,1.813Z" transform="translate(2613.495 -506.167)" fill="#011833"/>
    <path id="路径_83" data-name="路径 83" d="M184.27,154.13a.515.515,0,0,1-.1-1.02,1.933,1.933,0,0,0,1.559-2.268c-.234-1.664-3.46-1.934-3.492-1.936a.515.515,0,0,1,.07-1.027c.166.011,4.087.3,4.441,2.819a2.943,2.943,0,0,1-2.382,3.423A.553.553,0,0,1,184.27,154.13Z" transform="translate(2613.495 -506.167)" fill="#f1797a"/>
    <path id="路径_84" data-name="路径 84" d="M156.262,153.412l-2.031.8a5.848,5.848,0,0,0-3.562,7.279l.895,2.446a5.484,5.484,0,0,0,7.313,2.966l2.03-.805Z" transform="translate(2613.495 -506.167)" fill="url(#linear-gradient)"/>
    <path id="路径_85" data-name="路径 85" d="M189.26,164.788l-1.241.473a8.849,8.849,0,0,1-11.425-5.112l-.262-.686,17.778-6.787.262.687A8.852,8.852,0,0,1,189.26,164.788Z" transform="translate(2613.495 -506.167)" fill="#fff"/>
    <path id="路径_86" data-name="路径 86" d="M187.256,147.9a1.718,1.718,0,1,0,1.042-2.195A1.719,1.719,0,0,0,187.256,147.9Z" transform="translate(2613.495 -506.167)" fill="#011833"/>
    <path id="路径_87" data-name="路径 87" d="M174.491,152.446a1.719,1.719,0,1,0,1.043-2.195A1.719,1.719,0,0,0,174.491,152.446Z" transform="translate(2613.495 -506.167)" fill="#011833"/>
    <path id="路径_88" data-name="路径 88" d="M197.751,112.422a27.733,27.733,0,0,0-2.308-5.456,12.334,12.334,0,0,0-15.783-5.839l-16.275,6.813a12.341,12.341,0,0,0-7.354,13.7c-1.152.5-2.294,1.033-3.42,1.6a11.8,11.8,0,0,0-5.556,14.55L159.3,162.06c.77,2.018,2.726,3.146,4.368,2.519s2.349-2.771,1.579-4.789c-2.454-6.427-5.895-12.68-7.867-19.26a8.711,8.711,0,0,1-.465-3.472c.3-2.568,2.922-4.289,5.2-4.989,6.248-1.925,12.958-1.36,19.382-.934,6.58.436,13.705-.61,16.523-7.453C199.476,120.134,198.925,115.967,197.751,112.422Z" transform="translate(2613.495 -506.167)" fill="#191660"/>
    <path id="路径_89" data-name="路径 89" d="M192.865,257.949c-6.548,0-13.243-3.532-18.967-10.159-.113-.132-.2-.239-.446-.579a5.026,5.026,0,0,1-.672-.794c-.688-1.012-1.151-1.7-1.44-2.126-3.048-4.538.487-7.179.9-7.465.163-.115,4.079-2.751,7.258,1.717l.834,1.182c.477.674.971,1.377,1.192,1.68,2.711,3.108,8,7.922,13.63,6.269,4.183-1.231,14.47-8.041,19.627-44.607.719-5.1,6.037-9.528,7.65-10.762a4.972,4.972,0,0,1,6.044,7.9c-1.713,1.325-3.629,3.467-3.859,4.319-5.45,38.663-17.505,50-26.655,52.694A17.992,17.992,0,0,1,192.865,257.949Z" transform="translate(2613.495 -506.167)" fill="url(#linear-gradient)"/>
    <path id="路径_90" data-name="路径 90" d="M169.423,243.946c-5.452-8.344-10.578-18.652-11.164-37.412l12.391-.388c.516,16.487,4.994,24.656,9.152,31.019Z" transform="translate(2613.495 -506.167)" fill="#06bee1"/>
  </g>
</svg>
