<svg xmlns="http://www.w3.org/2000/svg" xmlns:xlink="http://www.w3.org/1999/xlink" width="225.211" height="337.848" viewBox="0 0 225.211 337.848">
  <defs>
    <linearGradient id="linear-gradient" x1="0.5" x2="0.5" y2="1" gradientUnits="objectBoundingBox">
      <stop offset="0" stop-color="#e994bd"/>
      <stop offset="1" stop-color="#fff"/>
    </linearGradient>
    <linearGradient id="linear-gradient-3" x1="0.5" x2="0.5" y2="1" gradientUnits="objectBoundingBox">
      <stop offset="0" stop-color="#f37335"/>
      <stop offset="1" stop-color="#fdc830"/>
    </linearGradient>
    <linearGradient id="linear-gradient-4" x1="12.187" y1="1.794" x2="12.531" y2="-0.972" gradientUnits="objectBoundingBox">
      <stop offset="0" stop-color="#e85180"/>
      <stop offset="0.33" stop-color="#f475aa"/>
      <stop offset="1" stop-color="#ff98d4"/>
    </linearGradient>
    <linearGradient id="linear-gradient-5" x1="16.9" y1="0.872" x2="17.79" y2="-0.296" xlink:href="#linear-gradient-4"/>
    <linearGradient id="linear-gradient-8" x1="20.739" y1="0.5" x2="21.739" y2="0.5" gradientUnits="objectBoundingBox">
      <stop offset="0" stop-color="#ff4f00"/>
      <stop offset="1" stop-color="#ff3d9d"/>
    </linearGradient>
    <linearGradient id="linear-gradient-9" x1="15.474" y1="-1.011" x2="15.494" y2="0.922" xlink:href="#linear-gradient-4"/>
    <linearGradient id="linear-gradient-10" x1="0.5" y1="0" x2="0.5" y2="1" xlink:href="#linear-gradient-4"/>
  </defs>
  <g id="profile_img" transform="translate(138.389 61.261)">
    <ellipse id="椭圆_5" data-name="椭圆 5" cx="72.514" cy="15.088" rx="72.514" ry="15.088" transform="translate(-119.844 246.412)" opacity="0.03"/>
    <path id="路径_43" data-name="路径 43" d="M118.627,333.743s4.874,30.859,8.934,47.911c0,0,.813,28.422,1.623,38.167s3.249,30.858,3.249,30.858a5.836,5.836,0,0,0,6.091.813s4.059-60.5,4.872-70.244,3.653-53.594,3.653-53.594S137.711,319.127,118.627,333.743Z" transform="translate(-202.688 -190.089)" fill="url(#linear-gradient)"/>
    <path id="路径_44" data-name="路径 44" d="M132.49,328.1s4.874,30.859,8.934,47.911c0,0,.813,28.422,1.623,38.167s3.249,30.858,3.249,30.858a5.832,5.832,0,0,0,6.091.81s4.059-60.5,4.872-70.242,1.217-53.19,1.217-53.19S151.574,313.486,132.49,328.1Z" transform="translate(-186.099 -196.629)" fill="url(#linear-gradient)"/>
    <path id="路径_45" data-name="路径 45" d="M125.176,315.708s-11.5,12.587-4.872,55.219c.406,6.091,4.466,21.791,4.466,21.791s15.023,2.436,32.888-4.466S175.93,377.7,175.93,377.7s.813-53.46-3.249-67.266S125.176,315.708,125.176,315.708Z" transform="translate(-203.146 -213.74)" fill="url(#linear-gradient-3)"/>
    <path id="路径_46" data-name="路径 46" d="M145.51,375.843a6.271,6.271,0,0,0,2.842,5.483c3.249,2.436,9.338,6.9,10.353,9.542,0,2.03-7.715-.2-11.166-2.032s-6.7-6.089-6.7-6.089l.2,1.825a3.44,3.44,0,0,1-2.234-1.015c-1.015-1.015.2-7.308.2-7.308Z" transform="translate(-179.019 -129.465)" fill="#5167b0"/>
    <path id="路径_47" data-name="路径 47" d="M131.647,382.22a6.27,6.27,0,0,0,2.842,5.483c3.249,2.436,9.338,6.9,10.353,9.54,0,2.032-7.715-.2-11.166-2.03s-6.7-6.089-6.7-6.089l.2,1.825a3.44,3.44,0,0,1-2.234-1.015c-1.015-1.015.2-7.308.2-7.308Z" transform="translate(-195.609 -121.834)" fill="#5167b0"/>
    <path id="路径_48" data-name="路径 48" d="M148.171,273.386s10.544,1.665,17.369,24.567c4.086,15.144,10.019,16.512,16.866,17.883s35.605,0,37.888,0,5.019,5.021,1.825,8.672-42.907,7.3-50.668,7.3-25.562-14.608-32.864-26.476S138.587,272.472,148.171,273.386Z" transform="translate(-182.358 -252.104)" fill="url(#linear-gradient-4)"/>
    <path id="路径_49" data-name="路径 49" d="M193.078,251.025s10.5,13.465,8.215,28.528-15.519,14.379-17.8,22.595,6.39,20.084-5.478,27.845-17.345,5.933-20.541,22.366-14.605,25.105-34.233,26.931-33.323-21.909-28.3-39.256,22.366-11.866,26.019-26.017,2.282-25.334,14.606-30.81,7.761-26.248,20.084-32.638C168.236,244.042,183.949,240.525,193.078,251.025Z" transform="translate(-232.284 -286.802)" fill="#191660"/>
    <path id="路径_50" data-name="路径 50" d="M141.55,271.348s-22.577,16.132-24.811,21.5-5.386,22.068,1.944,30.257c12.694,14.181,5.05,38.549,6.726,45.712s18.9,8.057,30.856,5.744,23.03-8.428,22.577-22.368,3.236-33.066,3.994-39.346-.066-22.054-2.981-32.629c-.615-2.23-8.123-4.573-8.123-4.573S163.806,270.4,141.55,271.348Z" transform="translate(-208.093 -254.644)" fill="url(#linear-gradient-5)"/>
    <path id="路径_51" data-name="路径 51" d="M146.868,275.7a2.312,2.312,0,0,0,.009.727c.248,1.654,1.072,5.887,1.226,7.655.147,1.694-1.775,4.631-6.35,4.536s-12.336-2.006-14.92-7.455a126.174,126.174,0,0,0-.76-16.1Z" transform="translate(-193.779 -262.034)" fill="url(#linear-gradient)"/>
    <path id="路径_52" data-name="路径 52" d="M165.713,266.041c-2.449-13.085-12.817-20.514-24.543-17.771,0,0-12.712,1.274-18.357,12.437s2.647,20.554,7.958,26.474c2.241,2.43,3.932,4.305,5,5.5.387.45.767.909,1.171,1.318l.112.13.013-.011a26.549,26.549,0,0,0,10.865,6.594c5.114,1.525,11.161.652,14.425-2.829S168.162,279.129,165.713,266.041Z" transform="translate(-199.943 -282.802)" fill="url(#linear-gradient)"/>
    <path id="路径_53" data-name="路径 53" d="M169.5,276.481s-9.358.914-14.836-5.476-13.237,0-19.627-5.478c0,0,2.739,6.847,0,13.694s-3.653,17.347-3.653,17.347l-11.866-18.715V261.418l15.062-14.151,20.084-.912,9.586,9.129S170.408,269.634,169.5,276.481Z" transform="translate(-201.627 -284.415)" fill="#191660"/>
    <path id="路径_54" data-name="路径 54" d="M118.9,296.372l28.37,8.938,26.423-7.383c-.387,1.166-7.383,22.538-22.538,26.426-10.9,2.792-23.761-6.842-30.156-12.492a38.291,38.291,0,0,0-2.752-11.567Z" transform="translate(-203.143 -224.563)" opacity="0.43" fill="url(#linear-gradient-8)"/>
    <path id="路径_55" data-name="路径 55" d="M124.7,284.323s-15.062-3.651-8.672,16.89,27.842,35.6,35.6,34.689,39.256-34.232,39.256-38.342a5.921,5.921,0,0,0-7.3-5.933c-3.653.914-27.845,26.931-30.127,26.017S137.023,293,124.7,284.323Z" transform="translate(-207.689 -239.282)" fill="url(#linear-gradient-9)"/>
    <path id="路径_56" data-name="路径 56" d="M149.064,298.575a4.521,4.521,0,0,1-3.016-5.782c1.259-4.525,9.553-8.044,10.81-8.3s13.575,2.263,14.078,3.772-2.263,2.263-5.281,1.507a50.246,50.246,0,0,0-7.541-1s3.269,3.519,3.016,5.026a9.5,9.5,0,0,1-4.523,5.782c-2.515,1.256-5.531-1.507-5.531-1.507Z" transform="translate(-170.152 -238.795)" fill="url(#linear-gradient-10)"/>
    <path id="路径_57" data-name="路径 57" d="M172.494,296.891s9.953-8.472,10.509-6.957-3.4,5.72-3.4,5.72,13.323-5.1,13.479-3.372-7.034,7.157-8.934,8.439-8.688,3.124-8.688,3.124S171.737,298.854,172.494,296.891Z" transform="translate(-138.35 -232.485)" fill="#ff9d6f"/>
    <path id="路径_58" data-name="路径 58" d="M155.106,285.825a13.145,13.145,0,0,0-5.929,10.3l.4,139.944c.026,8.916,6.366,12.565,14.087,8.106l83.363-48.128a13.147,13.147,0,0,0,5.931-10.3l-.4-139.944c-.024-8.916-6.364-12.565-14.087-8.106Z" transform="translate(-166.131 -297.054)" fill="#fff" opacity="0.23"/>
    <path id="路径_59" data-name="路径 59" d="M158.661,303.169a3.883,3.883,0,0,0-1.766,3.049l.022,7.431c0,1.127.8,1.579,1.777,1.013l67.971-39.243a3.885,3.885,0,0,0,1.766-3.058l-.022-7.431c0-1.116-.8-1.571-1.777-1Z" transform="translate(-156.895 -263.682)" fill="#fff"/>
    <path id="路径_60" data-name="路径 60" d="M158.682,310.532a3.885,3.885,0,0,0-1.766,3.058l.022,7.431c0,1.125.8,1.571,1.777,1l67.971-39.243a3.87,3.87,0,0,0,1.764-3.049l-.02-7.431c0-1.127-.8-1.579-1.777-1.013Z" transform="translate(-156.87 -254.871)" fill="#fff"/>
    <path id="路径_61" data-name="路径 61" d="M172.079,301.731a9.226,9.226,0,0,0-4.185,7.247l0,1.7c.009,2.667,1.891,3.741,4.211,2.4l21.984-12.692a9.225,9.225,0,0,0,4.189-7.249l0-1.707c-.007-2.658-1.9-3.737-4.218-2.4Z" transform="translate(-143.733 -234.028)" fill="#fff"/>
  </g>
</svg>
