<svg xmlns="http://www.w3.org/2000/svg" xmlns:xlink="http://www.w3.org/1999/xlink" width="339.597" height="359.497" viewBox="0 0 339.597 359.497">
  <defs>
    <linearGradient id="linear-gradient" x1="0.5" x2="0.5" y2="1" gradientUnits="objectBoundingBox">
      <stop offset="0" stop-color="#e994bd"/>
      <stop offset="1" stop-color="#fff"/>
    </linearGradient>
    <linearGradient id="linear-gradient-2" x1="0.5" x2="0.5" y2="1" gradientUnits="objectBoundingBox">
      <stop offset="0" stop-color="#a044ff"/>
      <stop offset="1" stop-color="#6a3093"/>
    </linearGradient>
    <linearGradient id="linear-gradient-4" x1="0.5" x2="0.5" y2="1" gradientUnits="objectBoundingBox">
      <stop offset="0" stop-color="#f37335"/>
      <stop offset="1" stop-color="#fdc830"/>
    </linearGradient>
    <linearGradient id="linear-gradient-6" x1="0.5" x2="0.5" y2="1" gradientUnits="objectBoundingBox">
      <stop offset="0" stop-color="#ff5858"/>
      <stop offset="1" stop-color="#f857a6"/>
    </linearGradient>
    <linearGradient id="linear-gradient-12" x1="0.5" x2="0.5" y2="1" gradientUnits="objectBoundingBox">
      <stop offset="0" stop-color="#2bc9ff"/>
      <stop offset="1" stop-color="#57eaea"/>
    </linearGradient>
    <linearGradient id="linear-gradient-18" x1="1.554" y1="-1.36" xlink:href="#linear-gradient-4"/>
  </defs>
  <g id="welcome_img" transform="translate(-18.019 -82.958)">
    <path id="联合_1" data-name="联合 1" d="M-698.591,768.6a46.47,46.47,0,0,1-5.176-1.193l-16.748-4.245c-3.428-.869-11.074-2.489-13.505-5.341A6.1,6.1,0,0,1-735.3,755.6c-6.694-4.8-12.053-11.628-16.641-18.587-2.38-3.609-4.718-7.775-3.883-12.016a3.682,3.682,0,0,1,1.6-2.633,3.5,3.5,0,0,1,1.536-.355c4.063-.161,7.448,2.929,10.23,5.894,6.165,6.574,11.85,13.577,17.529,20.575l1.966,2.422c8.744,1.774,17.706,7.842,24.979,11.2a8.668,8.668,0,0,0,1.009.368,21.447,21.447,0,0,0,6.689.274,5.334,5.334,0,0,1,1.508-.111,1.494,1.494,0,0,1,1.206.8.887.887,0,0,1-.549,1.2,9.2,9.2,0,0,1,3.238,1.282,3.129,3.129,0,0,1,1.38,3.014c-.328,1.539-2.087,2.307-3.653,2.463a12.424,12.424,0,0,1-1.243.06A21.725,21.725,0,0,1-698.591,768.6Z" transform="translate(845.379 -551.73)" stroke="rgba(0,0,0,0)" stroke-width="1" fill="url(#linear-gradient)"/>
    <path id="路径_1" data-name="路径 1" d="M422.168,804.41c2.313-1.491,2.963-3.364.938-5.715-1.628-1.89-6.26-1.028-8.382-1.179-9.934-.7-19.876-1.31-29.835-1.508a446.341,446.341,0,0,0-60,2.844c-2.955.34-24.372,1.4-20.769,8.525,1.832,3.621,10.323,1.576,13.469,1.634l20.632.383,41.268.766C382.552,810.217,413.645,809.9,422.168,804.41Z" transform="translate(-285.698 -378.146)" opacity="0.034"/>
    <path id="路径_2" data-name="路径 2" d="M806.479,822.418c2.371-1.529,3.038-3.448.962-5.858-1.669-1.937-6.417-1.054-8.593-1.209-10.184-.722-20.375-1.343-30.585-1.547a457.644,457.644,0,0,0-61.5,2.916c-3.029.349-24.985,1.438-21.292,8.739,1.878,3.712,10.583,1.616,13.808,1.676l21.15.392,42.306.786C765.867,828.371,797.742,828.049,806.479,822.418Z" transform="translate(-451.067 -385.862)" opacity="0.034"/>
    <path id="路径_4" data-name="路径 4" d="M338.806,699.518a14.239,14.239,0,0,1-8.986-2.265L343.443,666.5a46.378,46.378,0,0,0,5.089-22.924q.841-25.339,1.681-50.679a10.442,10.442,0,0,1,.711-4.16c1.744-3.68,6.758-4.018,10.824-3.824a2.9,2.9,0,0,1,3.35,3.58c.241,13.328,2.526,1.279,2.767,14.607.085,4.687-1.878,34.8-2.835,39.386-1.692,8.111-4.224,16.573-8.6,23.61C349.705,676.932,345.457,686.72,338.806,699.518Z" transform="translate(-297.018 -286.622)" fill="url(#linear-gradient-2)"/>
    <path id="路径_5" data-name="路径 5" d="M405.586,602.168l16.875-2.124c.28-.764-1.119.009-1.027.818a372.935,372.935,0,0,1,.754,76.841c-1.033,11.01-2.557,22.076-1.509,33.084l-6.944.676L401.14,608.428c-.212-1.737-.34-3.741.894-4.982A5.877,5.877,0,0,1,405.586,602.168Z" transform="translate(-327.887 -293.066)" fill="url(#linear-gradient-2)"/>
    <path id="路径_6" data-name="路径 6" d="M428.283,800.187c1.042.712-.2,1.482-.825,1.6a10.6,10.6,0,0,1-3.47.118,2.111,2.111,0,0,1-.871-.268,2.353,2.353,0,0,1-.511-.506c-.423-.514-1.383-1.3-1.584-1.922a2.4,2.4,0,0,1,.3-1.563c.424-1.072,1.218-2.209,1.052-3.418,2.5.027,4.8-1.064,6.917-.6.258.847.975,1.488.741,2.194.155-.466,6.289.447,7.013.516a33.28,33.28,0,0,0,3.5.174c.911-.009,2.6-.6,3.2.253a2.519,2.519,0,0,1,.372,1.034,2.1,2.1,0,0,1,.015.836,1.662,1.662,0,0,1-.933,1.052C438.455,801.988,433.27,799.62,428.283,800.187Z" transform="translate(-336.546 -377.104)" fill="url(#linear-gradient-4)"/>
    <path id="路径_7" data-name="路径 7" d="M331.607,789.276c.718,1.158-.847,1.375-1.514,1.224a11.442,11.442,0,0,1-3.477-1.4,2.28,2.28,0,0,1-.742-.645,2.56,2.56,0,0,1-.284-.723,9.281,9.281,0,0,1-.725-2.589,2.6,2.6,0,0,1,.978-1.413c.886-.873,2.435-2.461,2.8-3.726,2.461,1.12,6.156,2.353,8.045,3.737-.881.786-.911,1.4-1.45,1.992.356-.392,6.013,3.187,6.7,3.57a35.872,35.872,0,0,0,3.379,1.7c.9.388,2.826.545,3.045,1.645a2.726,2.726,0,0,1-.084,1.182,2.258,2.258,0,0,1-.351.833,1.793,1.793,0,0,1-1.379.631C340.862,795.494,336.778,790.893,331.607,789.276Z" transform="translate(-294.866 -371.245)" fill="url(#linear-gradient-4)"/>
    <path id="路径_8" data-name="路径 8" d="M379.595,323.588a17.827,17.827,0,0,0-3.727-3.613c-5.963-3.87-10.007-1.568-13.889,3.741-5.6,7.656-8.616,16.753-11.519,25.568-2.153,6.536-4.306,13.076-6.036,19.724-11.08,42.591-4.326,87.315-6.165,131.16l36.945,4.977c7.171.966,15.111,1.956,22.3,1.388,1.92-.151,18.711-4.6,17.084-7.856-3.367-6.74-4.877-14.169-6.131-21.538a370.331,370.331,0,0,1-3.862-94.118c.855-9.832,2.1-19.77.471-29.513a38.012,38.012,0,0,0-7.756-17.936c-4.522-5.48-9.842-5.7-15.22-9.588A14.893,14.893,0,0,1,379.595,323.588Z" transform="translate(-300.51 -170.91)" fill="url(#linear-gradient-6)"/>
    <path id="路径_9" data-name="路径 9" d="M405.353,265.04a30.457,30.457,0,0,1,2.622-5.667c3.8-6.2,14.02-13.755,21.215-8.29a17.084,17.084,0,0,1,3.969,4.848,34.842,34.842,0,0,1,2.967,5.74,21.184,21.184,0,0,1,.942,12.227c-.89,3.707-3.149,7.2-5.253,10.332-2.79,4.147-6.3,8.3-11.156,9.479-6.464,1.569-13.287-3.055-15.868-9.186S403.112,271.3,405.353,265.04Z" transform="translate(-328.85 -141.055)" fill="url(#linear-gradient)"/>
    <path id="路径_10" data-name="路径 10" d="M420.218,253.8c-2.434,1.374-4.079,3.772-6.059,5.744s-4.758,3.629-7.454,2.89c.945-1.464-.689-3.544-2.431-3.491s-3.141,1.53-3.833,3.13a5.478,5.478,0,0,0,.05,4.951c.894,1.464,3.053,2.168,4.427,1.141,1.265,6.608-2.631,13.1-2.96,19.821-.472,9.678,6.327,18.013,12.732,25.284-.339,1.647-2.327,2.512-3.98,2.206a9.129,9.129,0,0,1-4.257-2.576c-8.081-7.369-14.779-16.492-18.11-26.908s-3.064-22.187,1.936-31.913c3.055-5.944,7.949-11.1,14.137-13.618s13.693-2.131,19.128,1.758c2.4,1.717,4.469,4.843,3.144,7.479C425.517,252.028,422.487,252.519,420.218,253.8Z" transform="translate(-321.439 -136.575)" fill="#191660"/>
    <path id="路径_11" data-name="路径 11" d="M453.007,257.727c3.02,4.417,3.7,8.8,3.443,14.278-.09,1.883-1.841,15.295-4.393,15.324,3.779-.044,6.476-3.713,7.8-7.255,2.62-7.027,3.636-21.567-3.243-26.647-1.389-1.025-3.316-1.716-4.814-.857-.707,1.615.049,3.5,1.06,4.941Z" transform="translate(-349.795 -142.348)" fill="#191660"/>
    <path id="路径_13" data-name="路径 13" d="M391.309,558.185c8.6-.795,17.226.631,25.5-2.374-1.875-1.224-2.512-7.536-2.843-10.135-.911-7.143.04-12.884-.872-20.026-7.881,1.049-17.706-.252-25.6-1.1a286.055,286.055,0,0,0,2.18,32.157,2.292,2.292,0,0,0,.345,1.13A1.373,1.373,0,0,0,391.309,558.185Z" transform="translate(-322.028 -260.463)" fill="#fff" opacity="0.12"/>
    <path id="路径_21" data-name="路径 21" d="M449.222,418.4c-.266.7-1.1,1.493-.68,2.266a3.977,3.977,0,0,0,1.134,1.162l2.008,1.558c1.234.958,2.583,2.136,2.6,3.7.048,6.2-14.322-.748-16.629-1.692-11.944-4.888-26.705-2.151-37.1-9.8a37.5,37.5,0,0,1-7.912-8.623,126.205,126.205,0,0,1-21.307-49.607,8.211,8.211,0,0,1,14.206,5.2q10.444,21.293,22.009,42.012a8.394,8.394,0,0,0,6.622,5.26c9.169,2.528,19.517,3.734,27.711,8.506a3.7,3.7,0,0,0,1.172.515,3.608,3.608,0,0,0,1.894-.36l2.58-1a1.528,1.528,0,0,1,1.437-.052A.735.735,0,0,1,449.222,418.4Z" transform="translate(-315.02 -186.838)" fill="url(#linear-gradient)"/>
    <path id="路径_22" data-name="路径 22" d="M369.4,357.5a9.235,9.235,0,0,1,4.128-2.431,13.626,13.626,0,0,1,5.191-.927c3.42.2,6.442,2.494,8.378,5.32s2.964,6.161,3.965,9.438l3.242,10.607a88.117,88.117,0,0,1-17.131,7.352l-5.858-11.83c-2.272-4.587-4.605-9.684-3.327-14.641A7.136,7.136,0,0,1,369.4,357.5Z" transform="translate(-313.412 -186.557)" fill="url(#linear-gradient-6)"/>
    <path id="路径_23" data-name="路径 23" d="M501.291,372.884c-.564,4.74.248,10.736.2,13.321q-.2,11.255.025,22.513c.085,4.148.036,4.684,4.671,4.78,4.321.089,8.646.093,12.969.094,4.3,0,48.509.519,48.8-1.3a141.8,141.8,0,0,0,1.308-26.494c-.135-4.433-.351-8.873-.678-13.3-.373-5.041-1.71-5.009-6.965-5.081q-16.161-.218-32.322-.446l-16.161-.227c-2.541-.036-5.235-.811-7.767-.389C502.784,366.786,501.691,369.518,501.291,372.884Z" transform="translate(-371.291 -191.807)" fill="url(#linear-gradient-4)"/>
    <path id="路径_24" data-name="路径 24" d="M549.972,369.114q-.3,11.34-.386,22.685l9.99,0q.331-11.216.662-22.433Z" transform="translate(-392.322 -193.057)" fill="#fff"/>
    <path id="路径_25" data-name="路径 25" d="M738.021,811.792c-1.162.975.418,1.748,1.176,1.821a12.739,12.739,0,0,0,4.164-.27,2.534,2.534,0,0,0,1.01-.425,2.835,2.835,0,0,0,.552-.666,10.312,10.312,0,0,0,1.667-2.486,2.888,2.888,0,0,0-.543-1.834c-.633-1.232-1.718-2.5-1.663-3.963-2.993.33-5.863-.7-8.344.1-.208,1.043-.989,1.9-.626,2.712-.24-.539-7.468,1.28-8.325,1.448a40.062,40.062,0,0,1-4.165.623c-1.09.1-3.179-.406-3.792.681a3.043,3.043,0,0,0-.322,1.28,2.53,2.53,0,0,0,.082,1,2,2,0,0,0,1.24,1.147C726.069,815.151,731.989,811.705,738.021,811.792Z" transform="translate(-465.701 -381.545)" fill="#1a1a1a"/>
    <path id="路径_26" data-name="路径 26" d="M856.955,797.153c-.721,1.47,1.176,1.544,1.956,1.284a13.771,13.771,0,0,0,3.992-2.085,2.732,2.732,0,0,0,.812-.86,3.056,3.056,0,0,0,.254-.9c.149-.85.732-2.349.56-3.182-.142-.688-.789-1.131-1.337-1.573-1.163-.94-3.2-2.655-3.789-4.125-2.811,1.632-7.083,3.544-9.178,5.423,1.147.835,1.256,1.564,1.97,2.211-.472-.428-6.814,4.524-7.586,5.064a43.143,43.143,0,0,1-3.84,2.433c-1.034.571-3.315.987-3.446,2.328a3.279,3.279,0,0,0,.241,1.4,2.73,2.73,0,0,0,.518.954,2.154,2.154,0,0,0,1.724.591C846.623,805.686,850.963,799.7,856.955,797.153Z" transform="translate(-517.098 -373.72)" fill="#1a1a1a"/>
    <path id="路径_27" data-name="路径 27" d="M820.469,359.919a1.741,1.741,0,0,0-2.46,2.461,51.2,51.2,0,0,1,12.261,29.694c.246,3.3,5.407,3.32,5.159,0A50.227,50.227,0,0,0,820.469,359.919Z" transform="translate(-508.53 -188.845)" fill="#4d4d4d"/>
    <path id="路径_28" data-name="路径 28" d="M824.7,692.951a17.113,17.113,0,0,0,10.477-3.774l-19.938-35.163a74.324,74.324,0,0,1-5.65-11.448c-1.765-4.932-2.465-10.171-3.154-15.364q-4.01-30.205-8.019-60.41a12.554,12.554,0,0,0-1.344-4.89c-2.521-4.193-8.558-4-13.4-3.29a4.645,4.645,0,0,0-2.924,1.167c-.81.92-.758,2.29-.659,3.512,1.292,15.968-2.869,1.829-1.577,17.8.454,5.615,6.371,41.393,8.06,46.767,2.985,9.5,7.016,19.319,13.078,27.217C808.991,667.233,815.232,678.435,824.7,692.951Z" transform="translate(-491.491 -275.062)" fill="#191660"/>
    <path id="路径_29" data-name="路径 29" d="M742.832,573.6l-20.433-.54c-.425-.88,1.339-.121,1.325.856a448.141,448.141,0,0,0,8.208,91.987c2.54,13.044,5.674,26.1,5.726,39.388l8.385-.014q1.425-62.358,2.848-124.717c.048-2.1-.037-4.514-1.661-5.852C746.041,573.728,744.373,573.642,742.832,573.6Z" transform="translate(-467.236 -281.332)" fill="#191660"/>
    <path id="路径_30" data-name="路径 30" d="M770.31,273.249a4.842,4.842,0,0,0-.383-1.529l-6.07-16.373c-1.449-3.908-3.208-8.172-6.947-10.013-5.012-2.467-10.8.558-16.107,2.308a152.2,152.2,0,0,1-.954,20.738c-.445,3.882-1.041,7.8-.555,11.677s2.23,7.8,5.509,9.925c5.556,3.6,13.218.745,17.969-3.87a29.307,29.307,0,0,0,7.208-11.284A4.476,4.476,0,0,0,770.31,273.249Z" transform="translate(-474.512 -138.975)" fill="url(#linear-gradient)"/>
    <path id="路径_31" data-name="路径 31" d="M753.336,260.566a3.889,3.889,0,0,1,2.943-3.07,3.067,3.067,0,0,1,3.481,2.143c.409,1.776-1,3.381-1.9,4.965-2.92,5.14-.636,11.556,1.682,16.993a33.116,33.116,0,0,1,8.413-9.8c2.672-2.093,5.913-4.129,6.576-7.458.359-1.806-.138-3.7.217-5.505.492-2.5,2.551-4.511,2.91-7.038.392-2.761-1.326-5.349-3.1-7.5a64.337,64.337,0,0,0-14.448-12.947c-1.553-1.015-3.277-2.127-3.77-3.916a14.313,14.313,0,0,0-.574-2.752c-.732-1.446-2.621-1.764-4.236-1.907-4.989-.44-10.13-.865-14.91.63a12.758,12.758,0,0,1-3.7.89c-2.483.007-4.636-1.883-7.113-2.044-2.771-.18-5.294,1.931-6.417,4.471s-1.121,5.421-.958,8.193l5.09,2.222a7.529,7.529,0,0,0-.22,7.767,18.05,18.05,0,0,0,9.907-1.582c2.111-1,4.259-2.454,6.561-2.063,2.332.4,3.882,2.53,5.6,4.153s4.586,2.793,6.318,1.181A31.212,31.212,0,0,1,753.336,260.566Z" transform="translate(-465.512 -129.364)" fill="#191660"/>
    <path id="路径_32" data-name="路径 32" d="M755.7,325.79a22.251,22.251,0,0,1,16.086,9.886c2.892,4.71,3.4,9.9,3.87,14.992q.906,9.8,1.814,19.6c1.446,15.627,2.894,31.281,2.218,46.931-.308,7.133-1.057,14.254-1.806,21.372l-4.621,43.938L712.234,478.5c-2.44-.16-5.026-.358-6.958-1.375-3.512-1.849-3.3-5.409-2.741-8.389,7.006-37.238,12.608-74.5,15.946-112.071.461-5.183-.9-20.922,2.3-24.815C724.518,327.3,748.726,324.894,755.7,325.79Z" transform="translate(-458.511 -174.189)" fill="url(#linear-gradient-12)"/>
    <path id="路径_33" data-name="路径 33" d="M733.791,234.2c6.912,8.346,16.526,11.288,25.767,12.907a128.526,128.526,0,0,0,24.052,1.923c2.29-9.677-2.244-20.437-8.732-25.724s-14.42-6.222-22.021-6.223c-4.138,0-8.489.319-12.01,3.221C737.2,223.316,734.984,228.7,733.791,234.2Z" transform="translate(-472.204 -134.129)" fill="#00e381"/>
    <path id="路径_34" data-name="路径 34" d="M728.593,240.352l-2.069-3.46a13.232,13.232,0,0,0-3.7-4.5,12.116,12.116,0,0,0-4.546-1.553c-6.716-1.255-14.044-1.467-19.974,1.926-2.9,1.66-5.539,5.012-4.287,8.113,1.043,2.583,4.152,3.516,6.869,4.131l9.088,2.055,4.478,1.013c2.973.672,5.945,1.344,8.934,1.942,2,.4,4.313.7,5.884-.608a4.779,4.779,0,0,0,1.339-4.547A14.075,14.075,0,0,0,728.593,240.352Z" transform="translate(-454.819 -139.728)" fill="#00e381"/>
    <path id="路径_35" data-name="路径 35" d="M773.075,497.1c.862,2.075,1.954,4.359,4.071,5.108,1.656.586,3.481.049,5.129-.56,21.2-7.825,37.1-28.4,39.328-50.888.945-9.541-.383-19.159-2.136-28.585-.9-4.824-1.947-9.735-4.5-13.928s-6.9-7.6-11.8-7.744c-.6,11.217-5.709,21.815-12.543,30.731s-15.357,16.367-23.8,23.775c-2.164,1.9-4.429,3.955-5.209,6.726-.827,2.941.194,6.051,1.227,8.926Q767.637,484,773.075,497.1Z" transform="translate(-484.14 -206.67)" fill="url(#linear-gradient-6)"/>
    <path id="路径_36" data-name="路径 36" d="M839.668,418.848c-.966-5.2-2.1-10.486-4.842-15s-7.43-8.185-12.714-8.341c-.646,12.082-6.149,23.5-13.509,33.1-.83,1.082-1.686,2.142-2.559,3.187.033.06.066.121.1.179a44.417,44.417,0,0,1,3.766,8.922c1.965,6.439,2.767,13.069,4.106,19.642,1.521,7.46,2.986,14.976,3.89,22.54.385,3.218.7,6.469,1.33,9.655,12.548-10.905,21.092-26.515,22.734-43.093C842.987,439.361,841.556,429,839.668,418.848Z" transform="translate(-503.538 -204.502)" fill="url(#linear-gradient-6)"/>
    <path id="路径_37" data-name="路径 37" d="M770.544,322.523c-4.56-3.851-10.429-.108-14,3.367-4.5,4.382-7.6,10.545-10.37,16.1a112.515,112.515,0,0,0-10.895,37.787c-1.441,13.036-1.229,26.876,1.514,39.731a40.268,40.268,0,0,0,8.86,17.7c4.231,5.007,9.513,8.417,14.776,12.194,1.549,1.112,3.4-1.354,2.02-2.618-7.99-7.3-15.912-16.382-18.854-26.993-1.617-5.83-1.991-12.036-2.319-18.052a144.255,144.255,0,0,1,.126-17.2,118.423,118.423,0,0,1,6.5-32.606,87.781,87.781,0,0,1,7.5-15.5,39.335,39.335,0,0,1,4.954-6.726c1.412-1.493,6.4-5.184,9.009-5.321C772.155,324.233,772.812,324.438,770.544,322.523Z" transform="translate(-472.469 -172.146)" fill="url(#linear-gradient-6)"/>
    <path id="路径_38" data-name="路径 38" d="M588.91,451.627a16.954,16.954,0,0,0,3.364.349q4.5.148,9.02,0a1.281,1.281,0,0,0,1.079-.4,1.085,1.085,0,0,0,.106-.7,14.426,14.426,0,0,0-1.025-4.249,4.966,4.966,0,0,0-1.98-2.584c-1.134-.635-2.578-.535-3.922-.618a12.613,12.613,0,0,1-6.913-2.549,1.227,1.227,0,0,0-.731,1.533,2.987,2.987,0,0,0,1.172,1.334c-1.254.571-2.584-.167-3.9-.346a9.6,9.6,0,0,0-3.435.388,1.808,1.808,0,0,0-.884.389c-.6.592-.076,1.505.458,2.071C583.461,448.514,585.767,450.876,588.91,451.627Z" transform="translate(-405.768 -224.178)" fill="url(#linear-gradient-12)"/>
    <path id="路径_39" data-name="路径 39" d="M709.465,389.716c2.6-2.522,5.168-5.226,6.53-8.581s1.273-7.531-1.111-10.257c-2.122-2.427-5.66-3.243-8.848-2.765a22.877,22.877,0,0,0-8.8,3.819c-11.622,7.5-20.915,18.307-32.9,25.223-17.594,10.153-38.825,10.834-58.872,14.119a2.771,2.771,0,0,0-1.551.6,2.8,2.8,0,0,0-.608,1.772q-.354,3.514-.708,7.027a329.341,329.341,0,0,0,34.847,3.226c12.381.485,25.341.138,36.285-5.674a79.051,79.051,0,0,0,11.676-8.135C693.655,403.571,701.921,397.039,709.465,389.716Z" transform="translate(-415.311 -192.566)" fill="url(#linear-gradient-12)"/>
    <path id="路径_40" data-name="路径 40" d="M806.406,512.848l1.28,4.03a5.468,5.468,0,0,0,1.278-.523l8.436-4.321a11.788,11.788,0,0,0-.759-6.5c-3.02,2.442-6.093,4.915-9.673,6.419-.271.114-.587.275-.617.568A.816.816,0,0,0,806.406,512.848Z" transform="translate(-503.67 -252.219)" fill="#fff"/>
    <path id="路径_95" data-name="路径 95" d="M501.291,368.57c-.564,1.667.248,3.775.2,4.684a72.935,72.935,0,0,0,.025,7.915c.085,1.458.036,1.647,4.671,1.681,4.321.031,8.646.033,12.969.033,4.3,0,48.509.183,48.8-.458a18.248,18.248,0,0,0,1.308-9.315,39,39,0,0,0-.678-4.675c-.373-1.772-1.71-1.761-6.965-1.786q-16.161-.077-32.322-.157l-16.161-.08c-2.541-.013-5.235-.285-7.767-.137C502.784,366.426,501.691,367.387,501.291,368.57Z" transform="translate(-371.291 -161.052)" fill="url(#linear-gradient-18)"/>
  </g>
</svg>
